Coordinates
version=1
nRows=49
nColumns=12
inDegrees=yes

Units are S.I. units (second, meters, Newtons, ...)
Angles are in degrees

endheader
time	SC_y	SC_z	SC_x	AC_y	AC_z	AC_x	GH_y	GH_z	GH_yy	EL_x	PS_y
       0.0              -13.57          19.56          30.68          51.45          2.759          1.963          16.05         -3.965         -112.9          104.7          111.1
   0.03697              -13.57          19.55          30.69          51.45          2.756          1.965          16.04         -3.954         -112.9          104.7          111.1
   0.07393              -13.58          19.55           30.7          51.45          2.753          1.967          16.03         -3.942         -112.9          104.7          111.1
    0.1109              -13.58          19.55           30.7          51.45           2.75          1.968          16.02         -3.929         -112.9          104.7          111.1
    0.1479              -13.58          19.55          30.71          51.46          2.746           1.97          16.01         -3.916         -112.9          104.7          111.2
    0.1848              -13.59          19.54          30.72          51.46          2.743          1.973           16.0         -3.902         -112.9          104.6          111.2
    0.2218              -13.59          19.54          30.73          51.46          2.739          1.975          15.99         -3.887         -112.9          104.6          111.2
    0.2588              -13.59          19.54          30.74          51.47          2.735          1.977          15.98         -3.871         -112.9          104.6          111.2
    0.2957              -13.59          19.53          30.75          51.47           2.73           1.98          15.97         -3.853         -112.9          104.6          111.2
    0.3327               -13.6          19.53          30.77          51.48          2.725          1.982          15.96         -3.835         -112.9          104.6          111.2
    0.3697               -13.6          19.52          30.78          51.48           2.72          1.985          15.94         -3.815         -112.9          104.6          111.2
    0.4066              -13.61          19.52          30.79          51.49          2.715          1.989          15.93         -3.793         -113.0          104.6          111.2
    0.4436              -13.61          19.51          30.81          51.49          2.709          1.992          15.91          -3.77         -113.0          104.6          111.2
    0.4806              -13.62          19.51          30.82           51.5          2.702          1.996           15.9         -3.745         -113.0          104.6          111.3
    0.5175              -13.62           19.5          30.84          51.51          2.696            2.0          15.88         -3.718         -113.0          104.5          111.3
    0.5545              -13.63          19.49          30.86          51.51          2.688          2.004          15.86         -3.689         -113.0          104.5          111.3
    0.5915              -13.63          19.49          30.88          51.52           2.68          2.009          15.84         -3.657         -113.0          104.5          111.3
    0.6284              -13.64          19.48           30.9          51.53          2.671          2.014          15.81         -3.622         -113.0          104.5          111.3
    0.6654              -13.65          19.47          30.93          51.54          2.661           2.02          15.79         -3.584         -113.1          104.5          111.3
    0.7023              -13.66          19.46          30.95          51.55          2.651          2.026          15.76         -3.542         -113.1          104.4          111.4
    0.7393              -13.66          19.45          30.98          51.56          2.639          2.032          15.73         -3.497         -113.1          104.4          111.4
    0.7763              -13.67          19.44          31.02          51.57          2.626           2.04          15.69         -3.446         -113.1          104.4          111.4
    0.8132              -13.69          19.43          31.05          51.59          2.612          2.048          15.65         -3.391         -113.2          104.4          111.5
    0.8502               -13.7          19.41          31.09           51.6          2.596          2.057          15.61         -3.329         -113.2          104.3          111.5
    0.8872              -13.71           19.4          31.13          51.62          2.579          2.067          15.56         -3.261         -113.2          104.3          111.5
    0.9241              -13.73          19.38          31.18          51.64          2.559          2.079          15.51         -3.185         -113.3          104.2          111.6
    0.9611              -13.74          19.36          31.24          51.66          2.537          2.091          15.45         -3.099         -113.3          104.2          111.6
    0.9981              -13.76          19.34           31.3          51.68          2.513          2.105          15.38         -3.003         -113.4          104.1          111.7
     1.035              -13.78          19.32          31.37          51.71          2.485          2.121          15.31         -2.895         -113.4          104.1          111.7
     1.072              -13.81          19.29          31.45          51.74          2.453           2.14          15.22         -2.771         -113.5          104.0          111.8
     1.109              -13.83          19.26          31.54          51.77          2.417          2.161          15.13         -2.631         -113.6          103.9          111.9
     1.146              -13.87          19.22          31.64          51.81          2.376          2.184          15.02         -2.469         -113.6          103.8          112.0
     1.183               -13.9          19.18          31.76          51.86          2.328          2.212          14.89         -2.283         -113.7          103.7          112.1
      1.22              -13.94          19.13           31.9          51.91          2.273          2.244          14.74         -2.066         -113.8          103.6          112.2
     1.257              -13.99          19.07          32.07          51.97          2.208          2.282          14.56         -1.813         -114.0          103.5          112.4
     1.294              -14.05          19.01          32.26          52.04          2.131          2.326          14.36         -1.514         -114.1          103.3          112.6
     1.331              -14.12          18.93          32.49          52.13           2.04          2.378          14.11         -1.159         -114.3          103.1          112.8
     1.368              -14.21          18.83          32.76          52.24          1.931          2.441          13.82        -0.7329         -114.5          102.9          113.0
     1.405              -14.31          18.71          33.09          52.36          1.799          2.517          13.46        -0.2179         -114.8          102.6          113.3
     1.442              -14.43          18.57           33.5          52.51          1.638           2.61          13.03         0.4112         -115.1          102.2          113.7
     1.479              -14.58           18.4           34.0           52.7          1.439          2.725          12.49          1.188         -115.5          101.8          114.1
     1.516              -14.77          18.18          34.62          52.94          1.192          2.868          11.83          2.156         -116.0          101.2          114.7
     1.553              -15.01          17.91          35.41          53.24         0.8792          3.049          10.99          3.376         -116.7          100.6          115.4
      1.59              -15.31          17.56           36.4          53.62         0.4822          3.278          9.916          4.926         -117.5          99.68          116.3
     1.626               -15.7          17.11          37.68           54.1       -0.02601          3.572          8.548          6.911         -118.5          98.57          117.5
     1.663               -16.2          16.54          39.32          54.73        -0.6781          3.948          6.791          9.458         -119.8          97.14          119.0
       1.7              -16.84          15.81          41.41          55.52         -1.511           4.43          4.548          12.71         -121.5          95.31          120.9
     1.737              -17.64          14.89          44.05          56.52         -2.559          5.035          1.727           16.8         -123.6          93.01          123.3
     1.774              -18.61          13.77          47.25          57.74         -3.835          5.772         -1.711          21.79         -126.2          90.21          126.2
